<svg width="159" height="25" viewBox="0 0 159 25" fill="none" xmlns="http://www.w3.org/2000/svg">
<mask id="path-1-outside-1_20_9" maskUnits="userSpaceOnUse" x="-1" y="-1" width="161" height="27" fill="black">
<rect fill="white" x="-1" y="-1" width="161" height="27"/>
<path d="M11.6 24.7467C3.86667 24.72 0.213333 22.32 0.4 16.5067H7.04C7.12 18.0267 8.4 18.96 11.6 18.9867C14.4267 19.0133 15.7333 18.2133 15.7333 17.1733C15.7333 16.4533 15.3333 15.7067 13.1467 15.3867L10.2667 14.9333C6.02667 14.24 0.933333 13.7333 0.933333 8C0.933333 3.57333 4.53333 0.853333 11.6533 0.853333C18.08 0.853333 22.56 2.64 22.4267 9.04H15.84C15.5733 7.54667 14.32 6.61333 11.4933 6.61333C9.04 6.61333 8.02667 7.36 8.02667 8.37333C8.02667 9.01333 8.42667 9.78667 10.1333 10.0533L12.5067 10.4533C16.96 11.2 23.0667 11.3333 23.0667 17.4667C23.0667 22.3467 19.28 24.7733 11.6 24.7467ZM40.5446 1.6H47.9313V24H40.5446V15.8933H31.8513V24H24.4646V1.6H31.8513V9.70667H40.5446V1.6ZM62.1017 24.7467C54.395 24.7467 49.4083 19.9733 49.4083 12.8C49.4083 5.62667 54.395 0.853333 62.1017 0.853333C69.8083 0.853333 74.795 5.62667 74.795 12.8C74.795 19.9733 69.8083 24.7467 62.1017 24.7467ZM62.1017 18.3733C65.035 18.3733 67.4617 16.3467 67.4617 12.8C67.4617 9.25333 65.035 7.22667 62.1017 7.22667C59.1683 7.22667 56.7417 9.25333 56.7417 12.8C56.7417 16.3467 59.1683 18.3733 62.1017 18.3733ZM76.2771 24V1.6H88.9971C95.1038 1.6 98.7304 4.32 98.7304 10.3467C98.7304 16.3733 95.1038 19.0933 89.0238 19.0933H83.6638V24H76.2771ZM83.6638 12.96H88.3571C90.1438 12.96 91.2904 12.08 91.2904 10.3467C91.2904 8.61333 90.1438 7.73333 88.3837 7.73333H83.6638V12.96ZM102.426 24.4267C100.426 24.4267 98.7458 22.7733 98.7458 20.8C98.7458 18.8267 100.426 17.1733 102.426 17.1733C104.426 17.1733 106.106 18.8267 106.106 20.8C106.106 22.7733 104.426 24.4267 102.426 24.4267ZM120.151 24.7467C112.605 24.7467 107.565 19.9733 107.565 12.8C107.565 5.62667 112.605 0.853333 120.151 0.853333C125.618 0.853333 131.218 3.25333 131.965 10.8267H124.925C124.311 8.37333 122.578 7.22667 120.151 7.22667C117.218 7.22667 114.898 9.41333 114.898 12.8C114.898 16.1867 117.218 18.3733 120.151 18.3733C122.578 18.3733 124.311 17.2267 124.925 14.72H131.965C131.218 22.3467 125.671 24.7467 120.151 24.7467ZM146.008 24.7467C138.301 24.7467 133.315 19.9733 133.315 12.8C133.315 5.62667 138.301 0.853333 146.008 0.853333C153.715 0.853333 158.701 5.62667 158.701 12.8C158.701 19.9733 153.715 24.7467 146.008 24.7467ZM146.008 18.3733C148.941 18.3733 151.368 16.3467 151.368 12.8C151.368 9.25333 148.941 7.22667 146.008 7.22667C143.075 7.22667 140.648 9.25333 140.648 12.8C140.648 16.3467 143.075 18.3733 146.008 18.3733Z"/>
</mask>
<path d="M11.6 24.7467C3.86667 24.72 0.213333 22.32 0.4 16.5067H7.04C7.12 18.0267 8.4 18.96 11.6 18.9867C14.4267 19.0133 15.7333 18.2133 15.7333 17.1733C15.7333 16.4533 15.3333 15.7067 13.1467 15.3867L10.2667 14.9333C6.02667 14.24 0.933333 13.7333 0.933333 8C0.933333 3.57333 4.53333 0.853333 11.6533 0.853333C18.08 0.853333 22.56 2.64 22.4267 9.04H15.84C15.5733 7.54667 14.32 6.61333 11.4933 6.61333C9.04 6.61333 8.02667 7.36 8.02667 8.37333C8.02667 9.01333 8.42667 9.78667 10.1333 10.0533L12.5067 10.4533C16.96 11.2 23.0667 11.3333 23.0667 17.4667C23.0667 22.3467 19.28 24.7733 11.6 24.7467ZM40.5446 1.6H47.9313V24H40.5446V15.8933H31.8513V24H24.4646V1.6H31.8513V9.70667H40.5446V1.6ZM62.1017 24.7467C54.395 24.7467 49.4083 19.9733 49.4083 12.8C49.4083 5.62667 54.395 0.853333 62.1017 0.853333C69.8083 0.853333 74.795 5.62667 74.795 12.8C74.795 19.9733 69.8083 24.7467 62.1017 24.7467ZM62.1017 18.3733C65.035 18.3733 67.4617 16.3467 67.4617 12.8C67.4617 9.25333 65.035 7.22667 62.1017 7.22667C59.1683 7.22667 56.7417 9.25333 56.7417 12.8C56.7417 16.3467 59.1683 18.3733 62.1017 18.3733ZM76.2771 24V1.6H88.9971C95.1038 1.6 98.7304 4.32 98.7304 10.3467C98.7304 16.3733 95.1038 19.0933 89.0238 19.0933H83.6638V24H76.2771ZM83.6638 12.96H88.3571C90.1438 12.96 91.2904 12.08 91.2904 10.3467C91.2904 8.61333 90.1438 7.73333 88.3837 7.73333H83.6638V12.96ZM102.426 24.4267C100.426 24.4267 98.7458 22.7733 98.7458 20.8C98.7458 18.8267 100.426 17.1733 102.426 17.1733C104.426 17.1733 106.106 18.8267 106.106 20.8C106.106 22.7733 104.426 24.4267 102.426 24.4267ZM120.151 24.7467C112.605 24.7467 107.565 19.9733 107.565 12.8C107.565 5.62667 112.605 0.853333 120.151 0.853333C125.618 0.853333 131.218 3.25333 131.965 10.8267H124.925C124.311 8.37333 122.578 7.22667 120.151 7.22667C117.218 7.22667 114.898 9.41333 114.898 12.8C114.898 16.1867 117.218 18.3733 120.151 18.3733C122.578 18.3733 124.311 17.2267 124.925 14.72H131.965C131.218 22.3467 125.671 24.7467 120.151 24.7467ZM146.008 24.7467C138.301 24.7467 133.315 19.9733 133.315 12.8C133.315 5.62667 138.301 0.853333 146.008 0.853333C153.715 0.853333 158.701 5.62667 158.701 12.8C158.701 19.9733 153.715 24.7467 146.008 24.7467ZM146.008 18.3733C148.941 18.3733 151.368 16.3467 151.368 12.8C151.368 9.25333 148.941 7.22667 146.008 7.22667C143.075 7.22667 140.648 9.25333 140.648 12.8C140.648 16.3467 143.075 18.3733 146.008 18.3733Z" fill="black"/>
<path d="M11.6 24.7467L11.6035 23.7467L11.6034 23.7467L11.6 24.7467ZM0.4 16.5067V15.5067H-0.568405L-0.599485 16.4746L0.4 16.5067ZM7.04 16.5067L8.03862 16.4541L7.98875 15.5067H7.04V16.5067ZM11.6 18.9867L11.6094 17.9867L11.6083 17.9867L11.6 18.9867ZM13.1467 15.3867L12.9912 16.3746L13.0019 16.3761L13.1467 15.3867ZM10.2667 14.9333L10.1053 15.9202L10.1112 15.9212L10.2667 14.9333ZM22.4267 9.04V10.04H23.406L23.4264 9.06083L22.4267 9.04ZM15.84 9.04L14.8556 9.21579L15.0028 10.04H15.84V9.04ZM10.1333 10.0533L10.2995 9.06717L10.2877 9.06532L10.1333 10.0533ZM12.5067 10.4533L12.3405 11.4394L12.3413 11.4396L12.5067 10.4533ZM11.6034 23.7467C7.79697 23.7335 5.21051 23.1286 3.61234 21.9837C2.09843 20.8993 1.3137 19.2103 1.39948 16.5388L-0.599485 16.4746C-0.700368 19.6164 0.248233 22.0341 2.44766 23.6096C4.56282 25.1248 7.6697 25.7331 11.5966 25.7467L11.6034 23.7467ZM0.4 17.5067H7.04V15.5067H0.4V17.5067ZM6.04138 16.5592C6.09858 17.646 6.61668 18.5688 7.64539 19.17C8.59841 19.727 9.9263 19.9728 11.5917 19.9866L11.6083 17.9867C10.0737 17.9739 9.1616 17.7396 8.65461 17.4433C8.22332 17.1912 8.06142 16.8873 8.03862 16.4541L6.04138 16.5592ZM11.5906 19.9866C13.0771 20.0006 14.2842 19.8019 15.1597 19.3814C16.0575 18.9501 16.7333 18.2025 16.7333 17.1733H14.7333C14.7333 17.1841 14.7558 17.3566 14.2936 17.5786C13.8091 17.8114 12.9496 17.9994 11.6094 17.9867L11.5906 19.9866ZM16.7333 17.1733C16.7333 16.5929 16.5546 15.9168 15.9069 15.3674C15.3229 14.8721 14.4562 14.5677 13.2915 14.3972L13.0019 16.3761C14.0238 16.5257 14.4504 16.7546 14.6131 16.8926C14.712 16.9765 14.7333 17.0338 14.7333 17.1733H16.7333ZM13.3022 14.3988L10.4222 13.9455L10.1112 15.9212L12.9912 16.3745L13.3022 14.3988ZM10.428 13.9464C8.22775 13.5866 6.09483 13.3067 4.46835 12.4679C3.68558 12.0642 3.06907 11.5514 2.64192 10.8722C2.21598 10.1949 1.93333 9.28082 1.93333 8H-0.0666667C-0.0666667 9.58585 0.287355 10.8851 0.948911 11.937C1.60927 12.987 2.53109 13.7191 3.55165 14.2454C5.53183 15.2666 8.06558 15.5867 10.1053 15.9202L10.428 13.9464ZM1.93333 8C1.93333 6.09883 2.68509 4.62751 4.19071 3.59013C5.74778 2.51728 8.19733 1.85333 11.6533 1.85333V-0.146667C7.98933 -0.146667 5.07888 0.549385 3.05596 1.94321C0.981573 3.37249 -0.0666667 5.4745 -0.0666667 8H1.93333ZM11.6533 1.85333C14.8159 1.85333 17.2975 2.30135 18.9528 3.38364C20.5143 4.40467 21.4879 6.0908 21.4269 9.01917L23.4264 9.06083C23.4988 5.5892 22.299 3.18199 20.0472 1.7097C17.8892 0.298652 14.9174 -0.146667 11.6533 -0.146667V1.85333ZM22.4267 8.04H15.84V10.04H22.4267V8.04ZM16.8244 8.86421C16.6439 7.85299 16.1058 6.98794 15.1412 6.40917C14.2224 5.85793 12.9962 5.61333 11.4933 5.61333V7.61333C12.8172 7.61333 13.6309 7.8354 14.1122 8.12416C14.5476 8.38539 14.7695 8.73367 14.8556 9.21579L16.8244 8.86421ZM11.4933 5.61333C10.1919 5.61333 9.12693 5.8069 8.35171 6.24065C7.51726 6.70755 7.02667 7.45937 7.02667 8.37333H9.02667C9.02667 8.27396 9.04274 8.14579 9.32829 7.98602C9.67307 7.7931 10.3414 7.61333 11.4933 7.61333V5.61333ZM7.02667 8.37333C7.02667 8.91647 7.20455 9.54342 7.74054 10.068C8.25433 10.5709 9.00519 10.8892 9.97896 11.0413L10.2877 9.06532C9.55482 8.95081 9.25234 8.74913 9.13946 8.63866C9.04878 8.54991 9.02667 8.4702 9.02667 8.37333H7.02667ZM9.96714 11.0394L12.3405 11.4394L12.6729 9.46724L10.2995 9.06724L9.96714 11.0394ZM12.3413 11.4396C12.9106 11.535 13.5058 11.6206 14.0938 11.7069C14.6867 11.7939 15.2772 11.8824 15.8602 11.9862C17.0321 12.1948 18.1252 12.4571 19.0626 12.8591C19.9939 13.2584 20.7276 13.777 21.233 14.4749C21.7318 15.1637 22.0667 16.1077 22.0667 17.4667H24.0667C24.0667 15.759 23.6382 14.3863 22.8529 13.3018C22.074 12.2263 21.0027 11.5149 19.8508 11.0209C18.7048 10.5295 17.4362 10.2352 16.2106 10.0171C15.5949 9.90755 14.9777 9.81523 14.3843 9.7281C13.7859 9.64026 13.2161 9.55832 12.672 9.4671L12.3413 11.4396ZM22.0667 17.4667C22.0667 19.5996 21.2665 21.0912 19.6765 22.103C18.0083 23.1646 15.3705 23.7598 11.6035 23.7467L11.5965 25.7467C15.5095 25.7602 18.605 25.1554 20.7502 23.7903C22.9735 22.3755 24.0667 20.2137 24.0667 17.4667H22.0667ZM40.5446 1.6V0.6H39.5446V1.6H40.5446ZM47.9313 1.6H48.9313V0.6H47.9313V1.6ZM47.9313 24V25H48.9313V24H47.9313ZM40.5446 24H39.5446V25H40.5446V24ZM40.5446 15.8933H41.5446V14.8933H40.5446V15.8933ZM31.8513 15.8933V14.8933H30.8513V15.8933H31.8513ZM31.8513 24V25H32.8513V24H31.8513ZM24.4646 24H23.4646V25H24.4646V24ZM24.4646 1.6V0.6H23.4646V1.6H24.4646ZM31.8513 1.6H32.8513V0.6H31.8513V1.6ZM31.8513 9.70667H30.8513V10.7067H31.8513V9.70667ZM40.5446 9.70667V10.7067H41.5446V9.70667H40.5446ZM40.5446 2.6H47.9313V0.6H40.5446V2.6ZM46.9313 1.6V24H48.9313V1.6H46.9313ZM47.9313 23H40.5446V25H47.9313V23ZM41.5446 24V15.8933H39.5446V24H41.5446ZM40.5446 14.8933H31.8513V16.8933H40.5446V14.8933ZM30.8513 15.8933V24H32.8513V15.8933H30.8513ZM31.8513 23H24.4646V25H31.8513V23ZM25.4646 24V1.6H23.4646V24H25.4646ZM24.4646 2.6H31.8513V0.6H24.4646V2.6ZM30.8513 1.6V9.70667H32.8513V1.6H30.8513ZM31.8513 10.7067H40.5446V8.70667H31.8513V10.7067ZM41.5446 9.70667V1.6H39.5446V9.70667H41.5446ZM62.1017 23.7467C58.4553 23.7467 55.5439 22.6204 53.5521 20.7368C51.5654 18.8579 50.4083 16.146 50.4083 12.8H48.4083C48.4083 16.6274 49.7446 19.8887 52.1779 22.1899C54.6061 24.4863 58.0414 25.7467 62.1017 25.7467V23.7467ZM50.4083 12.8C50.4083 9.45404 51.5654 6.74207 53.5521 4.86322C55.5439 2.9796 58.4553 1.85333 62.1017 1.85333V-0.146667C58.0414 -0.146667 54.6061 1.11374 52.1779 3.41011C49.7446 5.71126 48.4083 8.97262 48.4083 12.8H50.4083ZM62.1017 1.85333C65.748 1.85333 68.6594 2.9796 70.6512 4.86322C72.6379 6.74207 73.795 9.45404 73.795 12.8H75.795C75.795 8.97262 74.4587 5.71126 72.0254 3.41011C69.5972 1.11374 66.162 -0.146667 62.1017 -0.146667V1.85333ZM73.795 12.8C73.795 16.146 72.6379 18.8579 70.6512 20.7368C68.6594 22.6204 65.748 23.7467 62.1017 23.7467V25.7467C66.162 25.7467 69.5972 24.4863 72.0254 22.1899C74.4587 19.8887 75.795 16.6274 75.795 12.8H73.795ZM62.1017 19.3733C63.7992 19.3733 65.3995 18.7847 66.5801 17.6323C67.7675 16.4734 68.4617 14.8117 68.4617 12.8H66.4617C66.4617 14.335 65.9425 15.4599 65.1832 16.201C64.4172 16.9487 63.3375 17.3733 62.1017 17.3733V19.3733ZM68.4617 12.8C68.4617 10.7883 67.7675 9.12655 66.5801 7.9677C65.3995 6.81533 63.7992 6.22667 62.1017 6.22667V8.22667C63.3375 8.22667 64.4172 8.65134 65.1832 9.39897C65.9425 10.1401 66.4617 11.265 66.4617 12.8H68.4617ZM62.1017 6.22667C60.4042 6.22667 58.8039 6.81533 57.6232 7.9677C56.4359 9.12655 55.7417 10.7883 55.7417 12.8H57.7417C57.7417 11.265 58.2608 10.1401 59.0201 9.39897C59.7861 8.65134 60.8658 8.22667 62.1017 8.22667V6.22667ZM55.7417 12.8C55.7417 14.8117 56.4359 16.4734 57.6232 17.6323C58.8039 18.7847 60.4042 19.3733 62.1017 19.3733V17.3733C60.8658 17.3733 59.7861 16.9487 59.0201 16.201C58.2608 15.4599 57.7417 14.335 57.7417 12.8H55.7417ZM76.2771 24H75.2771V25H76.2771V24ZM76.2771 1.6V0.6H75.2771V1.6H76.2771ZM83.6638 19.0933V18.0933H82.6638V19.0933H83.6638ZM83.6638 24V25H84.6638V24H83.6638ZM83.6638 12.96H82.6638V13.96H83.6638V12.96ZM83.6638 7.73333V6.73333H82.6638V7.73333H83.6638ZM77.2771 24V1.6H75.2771V24H77.2771ZM76.2771 2.6H88.9971V0.6H76.2771V2.6ZM88.9971 2.6C91.9224 2.6 94.0832 3.25399 95.5025 4.47216C96.8939 5.66644 97.7304 7.54015 97.7304 10.3467H99.7304C99.7304 7.12651 98.7536 4.62689 96.805 2.9545C94.8843 1.30601 92.1785 0.6 88.9971 0.6V2.6ZM97.7304 10.3467C97.7304 13.1532 96.8939 15.0274 95.505 16.2218C94.0888 17.4398 91.9348 18.0933 89.0238 18.0933V20.0933C92.1927 20.0933 94.892 19.3869 96.8091 17.7382C98.7536 16.0659 99.7304 13.5668 99.7304 10.3467H97.7304ZM89.0238 18.0933H83.6638V20.0933H89.0238V18.0933ZM82.6638 19.0933V24H84.6638V19.0933H82.6638ZM83.6638 23H76.2771V25H83.6638V23ZM83.6638 13.96H88.3571V11.96H83.6638V13.96ZM88.3571 13.96C89.4008 13.96 90.3956 13.7038 91.1441 13.0629C91.9166 12.4016 92.2904 11.4475 92.2904 10.3467H90.2904C90.2904 10.9792 90.0909 11.3317 89.8434 11.5437C89.5719 11.7762 89.1001 11.96 88.3571 11.96V13.96ZM92.2904 10.3467C92.2904 9.24609 91.9168 8.29347 91.1499 7.6325C90.4057 6.99113 89.4174 6.73333 88.3837 6.73333V8.73333C89.1101 8.73333 89.5751 8.91553 89.8442 9.14749C90.0907 9.35986 90.2904 9.71391 90.2904 10.3467H92.2904ZM88.3837 6.73333H83.6638V8.73333H88.3837V6.73333ZM82.6638 7.73333V12.96H84.6638V7.73333H82.6638ZM102.426 23.4267C100.964 23.4267 99.7458 22.2069 99.7458 20.8H97.7458C97.7458 23.3397 99.8878 25.4267 102.426 25.4267V23.4267ZM99.7458 20.8C99.7458 19.3931 100.964 18.1733 102.426 18.1733V16.1733C99.8878 16.1733 97.7458 18.2603 97.7458 20.8H99.7458ZM102.426 18.1733C103.888 18.1733 105.106 19.3931 105.106 20.8H107.106C107.106 18.2603 104.964 16.1733 102.426 16.1733V18.1733ZM105.106 20.8C105.106 22.2069 103.888 23.4267 102.426 23.4267V25.4267C104.964 25.4267 107.106 23.3397 107.106 20.8H105.106ZM131.965 10.8267V11.8267H133.068L132.96 10.7285L131.965 10.8267ZM124.925 10.8267L123.954 11.0692L124.144 11.8267H124.925V10.8267ZM124.925 14.72V13.72H124.14L123.953 14.4823L124.925 14.72ZM131.965 14.72L132.96 14.8174L133.067 13.72H131.965V14.72ZM120.151 23.7467C116.59 23.7467 113.704 22.6234 111.716 20.7378C109.733 18.8568 108.565 16.1431 108.565 12.8H106.565C106.565 16.6303 107.916 19.8898 110.34 22.1889C112.759 24.4833 116.166 25.7467 120.151 25.7467V23.7467ZM108.565 12.8C108.565 9.45693 109.733 6.74318 111.716 4.86219C113.704 2.97663 116.59 1.85333 120.151 1.85333V-0.146667C116.166 -0.146667 112.759 1.1167 110.34 3.41115C107.916 5.71016 106.565 8.96974 106.565 12.8H108.565ZM120.151 1.85333C122.755 1.85333 125.295 2.42724 127.249 3.81516C129.167 5.17822 130.622 7.39734 130.969 10.9248L132.96 10.7285C132.561 6.68266 130.842 3.91511 128.407 2.18483C126.007 0.479426 123.014 -0.146667 120.151 -0.146667V1.85333ZM131.965 9.82667H124.925V11.8267H131.965V9.82667ZM125.895 10.5841C125.541 9.17033 124.841 8.0527 123.807 7.29879C122.782 6.5508 121.52 6.22667 120.151 6.22667V8.22667C121.21 8.22667 122.027 8.47587 122.629 8.91454C123.222 9.3473 123.695 10.0297 123.954 11.0692L125.895 10.5841ZM120.151 6.22667C116.643 6.22667 113.898 8.88414 113.898 12.8H115.898C115.898 9.94252 117.793 8.22667 120.151 8.22667V6.22667ZM113.898 12.8C113.898 16.7159 116.643 19.3733 120.151 19.3733V17.3733C117.793 17.3733 115.898 15.6575 115.898 12.8H113.898ZM120.151 19.3733C121.52 19.3733 122.784 19.0492 123.812 18.2914C124.846 17.528 125.544 16.3949 125.896 14.9577L123.953 14.4823C123.692 15.5517 123.216 16.2454 122.624 16.6819C122.025 17.1242 121.21 17.3733 120.151 17.3733V19.3733ZM124.925 15.72H131.965V13.72H124.925V15.72ZM130.969 14.6226C130.621 18.1819 129.176 20.4131 127.266 21.7802C125.321 23.1722 122.783 23.7467 120.151 23.7467V25.7467C123.039 25.7467 126.035 25.1212 128.43 23.4065C130.86 21.6669 132.562 18.8847 132.96 14.8174L130.969 14.6226ZM146.008 23.7467C142.362 23.7467 139.45 22.6204 137.458 20.7368C135.472 18.8579 134.315 16.146 134.315 12.8H132.315C132.315 16.6274 133.651 19.8887 136.084 22.1899C138.512 24.4863 141.948 25.7467 146.008 25.7467V23.7467ZM134.315 12.8C134.315 9.45404 135.472 6.74207 137.458 4.86322C139.45 2.9796 142.362 1.85333 146.008 1.85333V-0.146667C141.948 -0.146667 138.512 1.11374 136.084 3.41011C133.651 5.71126 132.315 8.97262 132.315 12.8H134.315ZM146.008 1.85333C149.654 1.85333 152.566 2.9796 154.557 4.86322C156.544 6.74207 157.701 9.45404 157.701 12.8H159.701C159.701 8.97262 158.365 5.71126 155.932 3.41011C153.503 1.11374 150.068 -0.146667 146.008 -0.146667V1.85333ZM157.701 12.8C157.701 16.146 156.544 18.8579 154.557 20.7368C152.566 22.6204 149.654 23.7467 146.008 23.7467V25.7467C150.068 25.7467 153.503 24.4863 155.932 22.1899C158.365 19.8887 159.701 16.6274 159.701 12.8H157.701ZM146.008 19.3733C147.705 19.3733 149.306 18.7847 150.486 17.6323C151.674 16.4734 152.368 14.8117 152.368 12.8H150.368C150.368 14.335 149.849 15.4599 149.089 16.201C148.323 16.9487 147.244 17.3733 146.008 17.3733V19.3733ZM152.368 12.8C152.368 10.7883 151.674 9.12655 150.486 7.9677C149.306 6.81533 147.705 6.22667 146.008 6.22667V8.22667C147.244 8.22667 148.323 8.65134 149.089 9.39897C149.849 10.1401 150.368 11.265 150.368 12.8H152.368ZM146.008 6.22667C144.31 6.22667 142.71 6.81533 141.529 7.9677C140.342 9.12655 139.648 10.7883 139.648 12.8H141.648C141.648 11.265 142.167 10.1401 142.926 9.39897C143.692 8.65134 144.772 8.22667 146.008 8.22667V6.22667ZM139.648 12.8C139.648 14.8117 140.342 16.4734 141.529 17.6323C142.71 18.7847 144.31 19.3733 146.008 19.3733V17.3733C144.772 17.3733 143.692 16.9487 142.926 16.201C142.167 15.4599 141.648 14.335 141.648 12.8H139.648Z" fill="black" mask="url(#path-1-outside-1_20_9)"/>
</svg>
